<svg width="18" height="20" viewBox="0 0 18 20" fill="none" xmlns="http://www.w3.org/2000/svg">
<path fill-rule="evenodd" clip-rule="evenodd" d="M1.15813 0.525672C0.97846 0.465783 0.780376 0.512544 0.64646 0.64646C0.512544 0.780376 0.465783 0.97846 0.525672 1.15813L2.02567 5.65813C2.08047 5.82252 2.21648 5.94682 2.38514 5.98664C2.55379 6.02645 2.73103 5.9761 2.85357 5.85357L5.85357 2.85357C5.9761 2.73103 6.02645 2.55379 5.98664 2.38514C5.94682 2.21648 5.82252 2.08047 5.65813 2.02567L1.15813 0.525672ZM2.71852 4.5744L1.79058 1.79058L4.5744 2.71852L2.71852 4.5744ZM8.73439 6.50001L9.32814 5.61251H9.32501C9.37189 5.54064 9.45001 5.50001 9.53439 5.50001H12.4625C12.5469 5.50001 12.625 5.54376 12.6719 5.61251L13.2656 6.50001H8.73439ZM15.0688 6.50001L13.9219 4.78126L13.9188 4.77814C13.5938 4.29376 13.0469 4.00001 12.4625 4.00001H9.53439C8.95001 4.00001 8.40314 4.29376 8.07814 4.77814L6.93126 6.50001H4.75001C4.33439 6.50001 4.00001 6.83439 4.00001 7.25001C4.00001 7.66564 4.33439 8.00001 4.75001 8.00001H5.00001V17.5C5.00001 18.8813 6.11876 20 7.50001 20H14.5C15.8813 20 17 18.8813 17 17.5V8.00001H17.25C17.6656 8.00001 18 7.66564 18 7.25001C18 6.83439 17.6656 6.50001 17.25 6.50001H15.0688ZM6.50001 17.5V8.00001H15.5V17.5C15.5 18.0531 15.0531 18.5 14.5 18.5H7.50001C6.94689 18.5 6.50001 18.0531 6.50001 17.5ZM9.00001 16.5V10C9.00001 9.72501 8.77501 9.50001 8.50001 9.50001C8.22501 9.50001 8.00001 9.72501 8.00001 10V16.5C8.00001 16.775 8.22501 17 8.50001 17C8.77501 17 9.00001 16.775 9.00001 16.5ZM11.5 16.5V10C11.5 9.72501 11.275 9.50001 11 9.50001C10.725 9.50001 10.5 9.72501 10.5 10V16.5C10.5 16.775 10.725 17 11 17C11.275 17 11.5 16.775 11.5 16.5ZM14 16.5V10C14 9.72501 13.775 9.50001 13.5 9.50001C13.225 9.50001 13 9.72501 13 10V16.5C13 16.775 13.225 17 13.5 17C13.775 17 14 16.775 14 16.5Z" fill="white"/>
</svg>
